# xmcd
#
# Track frame offsets: 
#        150
#        16188
#        29480
#        42682
#        55784
#        69303
#        87689
#        103142
#        119960
#        135026
#        147301
#        163610
#
# Disc length: 2446 seconds
#
# Revision: 2
# Processed by: cddbd v1.5.2PL0 Copyright (c) Steve Scherf et al.
# Submitted via: ExactAudioCopyFreeDBPlugin 1.0
#
DISCID=ac098c0c
DTITLE=Tião Carreiro e Pardinho - Modas de Viola Classe A - Vol. 3
DYEAR=1981
DGENRE=Moda de Viola
TTITLE0=Última Viagem
TTITLE1=Rio Preto De Luto
TTITLE2=Boi "Sete Ouro"
TTITLE3=Rei Do Gado
TTITLE4=O Mineiro e o Italiano
TTITLE5=Padecimento
TTITLE6=Preto Inocente
TTITLE7=Catimbau
TTITLE8=Boi Cigano
TTITLE9=A Viola e o Violeiro
TTITLE10=Terra Roxa
TTITLE11=Exemplo De Humildade
EXTD=
EXTT0=
EXTT1=
EXTT2=
EXTT3=
EXTT4=
EXTT5=
EXTT6=
EXTT7=
EXTT8=
EXTT9=
EXTT10=
EXTT11=
PLAYORDER=
